<?xml version="1.0" standalone="no"?>
<!DOCTYPE svg PUBLIC "-//W3C//DTD SVG 20010904//EN"
 "http://www.w3.org/TR/2001/REC-SVG-20010904/DTD/svg10.dtd">
<svg version="1.0" xmlns="http://www.w3.org/2000/svg"
 width="512.000000pt" height="512.000000pt" viewBox="0 0 512.000000 512.000000"
 preserveAspectRatio="xMidYMid meet">
<metadata>
Created by potrace 1.14, written by Peter Selinger 2001-2017
</metadata>
<g transform="translate(0.000000,512.000000) scale(0.100000,-0.100000)"
fill="#000000" stroke="none">
<path d="M695 4986 c-41 -18 -92 -77 -104 -123 -15 -53 -15 -4553 0 -4606 13
-47 63 -106 106 -123 48 -21 3678 -21 3726 0 43 17 93 76 106 123 16 57 15
3471 -1 3527 -10 35 -91 121 -577 609 -377 378 -580 574 -607 587 -39 20 -66
20 -1330 20 -1043 -1 -1295 -3 -1319 -14z m2375 -852 l5 -481 27 -35 c15 -20
45 -47 65 -60 l38 -23 473 -3 472 -3 0 -1514 0 -1515 -1590 0 -1590 0 0 2060
0 2060 1048 -2 1047 -3 5 -481z m597 4 c112 -111 203 -208 203 -215 0 -10 -46
-13 -210 -13 l-210 0 0 215 c0 118 3 215 7 215 4 0 98 -91 210 -202z"/>
<path d="M1620 2225 l0 -1035 23 -5 c12 -3 130 -4 262 -3 l240 3 -3 555 c-2
445 -6 572 -18 639 -8 46 -13 85 -10 88 2 3 34 -53 69 -123 65 -130 121 -228
264 -456 43 -69 141 -227 218 -352 77 -125 158 -255 180 -289 l40 -62 240 -3
c132 -1 249 0 260 2 20 5 20 13 20 1041 l0 1035 -264 0 -263 0 5 -427 c3 -331
8 -454 21 -541 10 -62 16 -121 14 -130 -2 -10 -28 29 -62 93 -32 61 -186 311
-343 558 l-284 447 -305 0 -304 0 0 -1035z"/>
</g>
</svg>
